<!-- Adapted from "Passing Zone" by mazeo, Openclipart (CC0/public domain). -->
<svg xmlns="http://www.w3.org/2000/svg" viewBox="0 0 696.97 565.94"><title>Perspective road</title><path d="M585.4 788.2c.957-1.148 116.15-127.94 255.98-281.75 200.54-220.6 254.8-279.73 256.89-279.99 1.98-.246 2.51.036 2.094 1.119-.305.796-8.606 10.845-18.445 22.33-15.268 17.82-94.082 111.21-401.61 475.88-26.9 31.9-50.192 59.462-51.757 61.25l-2.845 3.25h-42.042l1.74-2.089zm61.876.838c.415-.687 94.146-116.22 208.29-256.75 114.15-140.52 215.81-265.85 225.93-278.5 10.116-12.65 19.416-24.07 20.669-25.378l2.277-2.378 35.349 1.229c23.762.826 35.727 1.606 36.5 2.378.734.732 2.842 23.49 5.803 62.65 2.558 33.824 6.868 90.524 9.577 126 2.71 35.474 6.958 91.274 9.44 124s7.668 100.82 11.522 151.31c3.854 50.496 7.007 92.908 7.007 94.25v2.437H933.08c-228.98 0-286.41-.251-285.81-1.25zm591.9-3c-.32-2.337-4.628-42.5-9.573-89.25-4.944-46.75-10.106-95.35-11.47-108-1.363-12.65-9.924-92.975-19.024-178.5s-17.139-160.9-17.866-167.5c-.726-6.6-1.134-12.338-.905-12.75.603-1.088 4.074-.92 4.786.232.661 1.07 95.493 555.41 95.504 558.27.01 1.61-1.63 1.75-20.432 1.75h-20.439l-.582-4.25z" style="fill:#ff5c39" transform="translate(-583.665 -224.357)"/><path d="M585.4 786.77c10.302-12.362 510.64-561.5 511.84-561.76 4.829-1.027 2.323 2.837-14.87 22.924-15.59 18.215-103.37 122.22-402.06 476.42-26.901 31.9-50.192 59.462-51.757 61.25l-2.846 3.25h-42.042l1.74-2.088zm61.874.842c.416-.69 94.148-116.23 208.29-256.75 114.15-140.52 216.57-266.75 227.61-280.5l20.074-25 5.944-.33c9.56-.53 26.442.858 26.458 2.176.01.635-7.424 19.154-16.516 41.154s-60.98 148-115.31 280l-98.78 240-129.26.254c-103.41.203-129.11.003-128.51-1zm279.54-4.504c11.666-31.306 211.76-555.51 212.22-555.97 2.66-2.66.036 6.13-12.788 42.84-8.095 23.173-14.481 42.752-14.191 43.507.673 1.755 2.032 1.752 3.491-.007.63-.76 7.197-20.412 14.592-43.672s13.996-42.63 14.667-43.046c1.881-1.162 30.153.157 31.492 1.47.735.72 2.836 23.398 5.803 62.63 2.558 33.825 6.867 90.525 9.577 126s6.958 91.275 9.44 124c2.483 32.725 7.668 100.82 11.521 151.31 3.854 50.497 7.007 92.909 7.007 94.25v2.438h-255.22l.581-2.25c.32-1.238 15.916-50.164 34.66-108.73 31.987-99.946 33.967-106.56 32.277-107.79-1.028-.753-3.68-1.192-6.183-1.024l-4.382.294-34.838 99.5c-19.161 54.725-36.475 104.11-38.476 109.75l-3.639 10.25h-19.754zm116.09-240.69c2.313-6.72 3.407-11.293 2.837-11.863-.51-.51-2.94-1.154-5.399-1.431l-4.471-.504-2.162 5.867a2809 2809 0 0 1-3.71 10.008c-2.062 5.517-1.51 7.695 2.153 8.5 6.443 1.417 6.716 1.148 10.752-10.577m7.143-26.167c1.439-.552 6.593-14.548 6.593-17.904 0-1.494-6.021-3.083-8.328-2.198-1.566.6-7.628 16.634-6.956 18.397.25.656 1.878 1.372 3.619 1.59 1.74.218 3.24.47 3.333.557s.875-.111 1.739-.443zm10.384-31.247c1.183-.75 5.183-12.124 5.2-14.789.013-1.78-7.038-2.76-8.508-1.183-1.766 1.896-5.63 14.082-4.735 14.936.413.394 1.876.918 3.251 1.165s2.725.503 3 .57 1.081-.248 1.792-.699m10-28.9c2.267-6.019 3.158-9.522 2.637-10.365-.827-1.338-7.047-1.06-8.165.365-1.5 1.912-4.006 10.09-3.525 11.5.242.705 2.081 1.25 4.223 1.25 3.223 0 3.952-.415 4.83-2.75m6.824-21.787c.914-1.395 1.712-4.208 1.773-6.25.107-3.592 0-3.713-3.358-3.713-3.235 0-3.59.327-5.275 4.867-1.38 3.717-1.536 5.193-.66 6.25 1.857 2.237 5.683 1.65 7.52-1.154m7.369-22.259c1.313-3.799 1.313-4.407 0-5.256-2.744-1.773-5.435-.55-7.331 3.33-2.418 4.95-1.629 6.942 2.589 6.536 2.841-.274 3.446-.862 4.742-4.61m4.917-15.353c1.76-5.046 1.44-5.85-2.324-5.85-3.022 0-3.558.408-4.572 3.48-1.407 4.265-.736 5.52 2.955 5.52 2.29 0 3.057-.613 3.941-3.15m3.878-13.1c.564-.688 1.181-2.376 1.372-3.75.3-2.16-.079-2.542-2.785-2.805-2.733-.266-3.275.1-4.238 2.864-.608 1.744-.859 3.568-.558 4.055.814 1.318 5.033 1.07 6.209-.365m4.858-14.653c1.638-3.284.65-5.27-2.439-4.902-3.103.371-5.357 5.447-3.071 6.919 2.12 1.365 4.205.602 5.51-2.017m3.42-11.205c2.116-3.955-3.043-5.482-5.45-1.614-.858 1.376-.769 1.995.392 2.735 2.345 1.495 3.834 1.165 5.057-1.12m3.758-12.143c.27-2.35-.046-2.75-2.182-2.75-1.617 0-2.722.703-3.131 1.991-.858 2.704.246 4.186 2.841 3.816 1.512-.215 2.25-1.129 2.472-3.057m3.004-9.5c.257-1.81-.162-2.25-2.144-2.25-2.468 0-4.205 2.335-3.085 4.148 1.123 1.816 4.896.447 5.229-1.898m2.68-8.75c0-2.978-3.904-2.68-4.33.33-.275 1.939.06 2.275 2 2q2.33-.33 2.33-2.33m2.164-7.067c.33-.862.18-1.989-.335-2.504-1.263-1.263-4.855 1.41-3.923 2.92 1.027 1.662 3.556 1.415 4.258-.416m125.8 464.32c-.32-2.338-4.628-42.5-9.572-89.25-4.945-46.75-10.106-95.35-11.47-108s-9.925-92.975-19.024-178.5-17.14-160.9-17.866-167.5c-.727-6.6-1.135-12.338-.906-12.75.603-1.088 4.074-.92 4.786.232.661 1.069 95.493 555.41 95.504 558.27.01 1.61-1.63 1.75-20.432 1.75h-20.439l-.582-4.25z" style="fill:#001b3d" transform="translate(-583.665 -224.357)"/><path d="M1102.6 224.85c-.778 0-1.649.622-1.937 1.375-.29.753-8.568 10.765-18.407 22.25-15.268 17.821-94.097 111.21-401.62 475.88-26.9 31.9-50.185 59.462-51.75 61.25l-2.843 3.25h614.06l-.594-4.25c-.48-3.514-7.608-70.462-18.469-173.25-3.42-32.359-35.951-337.93-38.062-357.5-1.098-10.175-2.115-20.189-2.25-22.25-.178-2.723-.703-3.748-1.906-3.75-1.064-.001-1.508.626-1.25 1.75.22.963 2.407 28.525 4.875 61.25s7.886 104.05 12.03 158.5c4.146 54.45 11.138 146.25 15.532 204s8.5 111.66 9.125 119.78c.624 8.126.919 14.988.656 15.25-.262.263-129.31.357-286.78.219l-286.34-.25 204.34-251.5c243.66-299.92 253.38-312 251.56-312z" style="fill-rule:evenodd;color:#000;stroke:#eeefef;fill:#eeefef" transform="translate(-583.665 -224.357)"/></svg>
